# xmcd
#
# Track frame offsets:
#	150
#	21784
#	39720
#	57586
#	74418
#	88841
#	106319
#	127210
#	143650
#	158931
#	176197
#	197831
#	215767
#	233633
#	250465
#	264888
#	282366
#	303257
#	319697
#	334978
#
# Disc length: 4694 seconds
#
# Revision: 1
# Processed by: cddbd v1.5.2PL0 Copyright (c) Steve Scherf et al.
# Submitted via: audiograbber 1.83.01
#
DISCID=38125414
DTITLE=Various Artist - Thc0801
DYEAR=2007
DGENRE=Karaoke
TTITLE0=Sugarland - Stay (W/Vocals)
TTITLE1=Wicks, Chuck - Stealing Cinderella (W/Vocals)
TTITLE2=Morgan, Craig - International Harvester (W/Vocals)
TTITLE3=Hill, Faith - Red Umbrella (W/Vocals)
TTITLE4=Pickler, Kellie - Things That Never Cross A Man's Mind (W/Vocals)
TTITLE5=Rascal Flatts - Still Feels Good (W/Vocals)
TTITLE6=Chesney, Kenny and George Strait - Shiftwork (W/Vocals)
TTITLE7=Parton, Dolly - Better Get To Livin' (W/Vocals)
TTITLE8=Aldean, Jason - Laughed Until We Cried (W/Vocals)
TTITLE9=Atkins, Rodney - Cleaning This Gun (Come On In Boy) (W/Vocals)
TTITLE10=Sugarland - Stay
TTITLE11=Wicks, Chuck - Stealing Cinderella
TTITLE12=Morgan, Craig - International Harvester
TTITLE13=Hill, Faith - Red Umbrella
TTITLE14=Pickler, Kellie - Things That Never Cross A Man's Mind
TTITLE15=Rascal Flatts - Still Feels Good
TTITLE16=Chesney, Kenny and George Strait - Shiftwork
TTITLE17=Parton, Dolly - Better Get To Livin'
TTITLE18=Aldean, Jason - Laughed Until We Cried
TTITLE19=Atkins, Rodney - Cleaning This Gun (Come On In Boy)
EXTD=
EXTT0=
EXTT1=
EXTT2=
EXTT3=
EXTT4=
EXTT5=
EXTT6=
EXTT7=
EXTT8=
EXTT9=
EXTT10=
EXTT11=
EXTT12=
EXTT13=
EXTT14=
EXTT15=
EXTT16=
EXTT17=
EXTT18=
EXTT19=
PLAYORDER=
